<svg xmlns="http://www.w3.org/2000/svg" width="1600" height="1100" viewBox="0 0 1600 1100" role="img" aria-label="LIFEMEAL / YEONNAM: Axonometric study / original plan, illustrative heights"><defs><pattern id="grid" width="32" height="32" patternUnits="userSpaceOnUse"><path d="M32 0H0V32" fill="none" stroke="#e7e6de" stroke-width=".5"/></pattern><pattern id="hatch" width="7" height="7" patternUnits="userSpaceOnUse"><path d="M0 7L7 0" stroke="#aab0a3" stroke-width=".5"/></pattern></defs><rect width="1600" height="1100" fill="#f7f5ee"/><rect x="56" y="212" width="1112" height="704" fill="url(#grid)"/><g font-family="Arial,Helvetica,sans-serif"><text x="64" y="54" fill="#757b70" font-size="13" font-weight="400" text-anchor="start" letter-spacing="2.5">EEH STUDIO / SPATIAL STUDIES</text><text x="1536" y="54" fill="#757b70" font-size="13" font-weight="400" text-anchor="end" letter-spacing="1.5">AXONOMETRIC</text><line x1="64" y1="76" x2="1536" y2="76" stroke="#252821" stroke-width="0.9" /><text x="64" y="139" fill="#252821" font-size="42" font-weight="500" text-anchor="start">LIFEMEAL / YEONNAM</text><text x="64" y="176" fill="#757b70" font-size="17" font-weight="400" text-anchor="start">Axonometric study / original plan, illustrative heights</text><rect x="1198" y="220" width="4" height="60" fill="#3d7859" stroke="#3d7859" stroke-width="0" /><text x="1226" y="248" fill="#3d7859" font-size="13" font-weight="600" text-anchor="start" letter-spacing="1.0">GEOMETRY</text><text x="1226" y="276" fill="#252821" font-size="16" font-weight="400" text-anchor="start">Original plan footprints</text><text x="1226" y="297" fill="#252821" font-size="16" font-weight="400" text-anchor="start">Existing room outline</text><text x="1226" y="372" fill="#3d7859" font-size="13" font-weight="600" text-anchor="start" letter-spacing="1.0">DISPLAY SYSTEM</text><text x="1226" y="400" fill="#252821" font-size="16" font-weight="400" text-anchor="start">Counter and retail fixtures</text><text x="1226" y="421" fill="#252821" font-size="16" font-weight="400" text-anchor="start">Mission and photo zones</text><text x="1226" y="496" fill="#3d7859" font-size="13" font-weight="600" text-anchor="start" letter-spacing="1.0">MODEL STATUS</text><text x="1226" y="524" fill="#252821" font-size="16" font-weight="400" text-anchor="start">Illustrative extrusion</text><text x="1226" y="545" fill="#252821" font-size="16" font-weight="400" text-anchor="start">Heights not measured</text><text x="1226" y="620" fill="#3d7859" font-size="13" font-weight="600" text-anchor="start" letter-spacing="1.0">DESIGN INTENT</text><text x="1226" y="648" fill="#252821" font-size="16" font-weight="400" text-anchor="start">Make the guest journey</text><text x="1226" y="669" fill="#252821" font-size="16" font-weight="400" text-anchor="start">visible before production</text><line x1="64" y1="970" x2="1536" y2="970" stroke="#252821" stroke-width="0.9" /><text x="64" y="1004" fill="#757b70" font-size="12" font-weight="400" text-anchor="start" letter-spacing="1.0">SOURCE PLAN FOOTPRINTS / AXONOMETRIC CONCEPT / NTS / HEIGHTS ILLUSTRATIVE</text><text x="64" y="1046" fill="#757b70" font-size="12" font-weight="400" text-anchor="start" letter-spacing=".5">DRAWING IS RECONSTRUCTED FOR PORTFOLIO PRESENTATION.</text><text x="1536" y="1046" fill="#757b70" font-size="12" font-weight="400" text-anchor="end">EEH / 2026</text><polygon points="464.55,308.92 1116.68,685.44 755.45,894.00 103.32,517.48" fill="#fefdf7" stroke="#252821" stroke-width="1.3" /><polygon points="464.55,261.07 660.44,374.17 552.45,436.52 356.55,323.42" fill="#dee0d3" stroke="#252821" stroke-width="0.6" /><polygon points="467.89,310.85 106.67,519.41 106.67,444.49 467.89,235.93" fill="#aeaea7" stroke="#252821" stroke-width="0.6" /><polygon points="464.55,234.00 467.89,235.93 106.67,444.49 103.32,442.56" fill="#e5e5dc" stroke="#252821" stroke-width="0.6" /><polygon points="362.00,359.43 408.46,386.25 359.48,414.53 313.02,387.70" fill="#a63d33" stroke="#252821" stroke-width="0.6" /><polygon points="356.55,371.75 552.45,484.85 552.45,436.52 356.55,323.42" fill="#c3c5b9" stroke="#252821" stroke-width="0.6" /><polygon points="408.46,417.67 359.48,445.94 359.48,414.53 408.46,386.25" fill="#7e2e26" stroke="#252821" stroke-width="0.6" /><polygon points="313.02,419.12 359.48,445.94 359.48,414.53 313.02,387.70" fill="#92352c" stroke="#252821" stroke-width="0.6" /><polygon points="660.44,422.50 552.45,484.85 552.45,436.52 660.44,374.17" fill="#a8aaa0" stroke="#252821" stroke-width="0.6" /><polygon points="309.26,372.96 355.72,399.79 171.55,506.12 125.08,479.29" fill="#9cc1d9" stroke="#252821" stroke-width="0.6" /><polygon points="461.20,310.85 1113.33,687.37 1113.33,612.45 461.20,235.93" fill="#c9c9c1" stroke="#252821" stroke-width="0.6" /><polygon points="464.55,234.00 1116.68,610.52 1113.33,612.45 461.20,235.93" fill="#e5e5dc" stroke="#252821" stroke-width="0.6" /><polygon points="355.72,448.12 171.55,554.45 171.55,506.12 355.72,399.79" fill="#7692a4" stroke="#252821" stroke-width="0.6" /><polygon points="103.32,517.48 106.67,519.41 106.67,444.49 103.32,442.56" fill="#c9c9c1" stroke="#252821" stroke-width="0.6" /><polygon points="596.81,471.32 670.48,513.85 648.30,526.66 574.63,484.13" fill="#a63d33" stroke="#252821" stroke-width="0.6" /><polygon points="574.63,515.55 648.30,558.08 648.30,526.66 574.63,484.13" fill="#92352c" stroke="#252821" stroke-width="0.6" /><polygon points="125.08,527.63 171.55,554.45 171.55,506.12 125.08,479.29" fill="#89a9be" stroke="#252821" stroke-width="0.6" /><polygon points="670.48,545.27 648.30,558.08 648.30,526.66 670.48,513.85" fill="#7e2e26" stroke="#252821" stroke-width="0.6" /><polygon points="698.11,412.84 996.13,584.90 923.30,626.95 625.28,454.89" fill="#dee0d3" stroke="#252821" stroke-width="0.6" /><polygon points="625.28,486.30 923.30,658.37 923.30,626.95 625.28,454.89" fill="#c3c5b9" stroke="#252821" stroke-width="0.6" /><polygon points="398.41,486.30 432.73,506.12 302.14,581.52 267.82,561.70" fill="#a63d33" stroke="#252821" stroke-width="0.6" /><polygon points="432.73,554.45 302.14,629.85 302.14,581.52 432.73,506.12" fill="#7e2e26" stroke="#252821" stroke-width="0.6" /><polygon points="670.48,513.85 811.96,595.54 789.78,608.35 648.30,526.66" fill="#d4cab6" stroke="#252821" stroke-width="0.6" /><polygon points="432.73,506.12 467.48,526.18 359.07,588.77 324.32,568.71" fill="#a63d33" stroke="#252821" stroke-width="0.6" /><polygon points="648.30,558.08 789.78,639.76 789.78,608.35 648.30,526.66" fill="#bab1a0" stroke="#252821" stroke-width="0.6" /><polygon points="467.48,574.51 359.07,637.11 359.07,588.77 467.48,526.18" fill="#7e2e26" stroke="#252821" stroke-width="0.6" /><polygon points="267.82,610.04 302.14,629.85 302.14,581.52 267.82,561.70" fill="#92352c" stroke="#252821" stroke-width="0.6" /><polygon points="324.32,617.05 359.07,637.11 359.07,588.77 324.32,568.71" fill="#92352c" stroke="#252821" stroke-width="0.6" /><polygon points="811.96,626.95 789.78,639.76 789.78,608.35 811.96,595.54" fill="#a1998a" stroke="#252821" stroke-width="0.6" /><polygon points="996.13,616.32 923.30,658.37 923.30,626.95 996.13,584.90" fill="#a8aaa0" stroke="#252821" stroke-width="0.6" /><polygon points="860.52,623.57 894.84,643.39 850.05,669.25 815.73,649.43" fill="#9cc1d9" stroke="#252821" stroke-width="0.6" /><polygon points="1116.68,685.44 1113.33,687.37 1113.33,612.45 1116.68,610.52" fill="#aeaea7" stroke="#252821" stroke-width="0.6" /><polygon points="894.84,674.81 850.05,700.66 850.05,669.25 894.84,643.39" fill="#7692a4" stroke="#252821" stroke-width="0.6" /><polygon points="815.73,680.85 850.05,700.66 850.05,669.25 815.73,649.43" fill="#89a9be" stroke="#252821" stroke-width="0.6" /><polygon points="996.13,567.99 1115.84,637.11 969.76,721.45 850.05,652.33" fill="#dee0d3" stroke="#252821" stroke-width="0.6" /><polygon points="1115.84,685.44 969.76,769.78 969.76,721.45 1115.84,637.11" fill="#a8aaa0" stroke="#252821" stroke-width="0.6" /><polygon points="850.05,700.66 969.76,769.78 969.76,721.45 850.05,652.33" fill="#c3c5b9" stroke="#252821" stroke-width="0.6" /><polygon points="757.13,659.58 837.49,705.98 701.46,784.52 621.09,738.12" fill="#d4cab6" stroke="#252821" stroke-width="0.6" /><polygon points="837.49,754.31 701.46,832.86 701.46,784.52 837.49,705.98" fill="#a1998a" stroke="#252821" stroke-width="0.6" /><polygon points="621.09,786.46 701.46,832.86 701.46,784.52 621.09,738.12" fill="#bab1a0" stroke="#252821" stroke-width="0.6" /><text x="72" y="908" fill="#757b70" font-size="13" font-weight="400" text-anchor="start" letter-spacing="1">CUTAWAY / FIXTURE HEIGHTS ARE CONCEPTUAL</text></g></svg>