<svg xmlns="http://www.w3.org/2000/svg" width="1800" height="1500" viewBox="0 0 1800 1500" role="img" aria-label="CSES / THE BETTER, THE MORE / 2025 AXONOMETRIC"><rect width="100%" height="100%" fill="white"/><path d="M255.1 1041.8L781.5 1345.7M783.6 1347.0L807.5 1360.7M809.6 1362.0L821.5 1368.9M823.7 1370.1L833.5 1375.7M835.6 1377.0L847.5 1383.9M849.7 1385.1L859.4 1390.7M861.6 1392.0L873.5 1398.9M875.7 1400.1L885.4 1405.7M887.6 1407.0L896.3 1412.0M896.3 1412.0L896.3 1407.1M896.3 1407.1L255.1 1036.9M255.1 1041.8L255.1 1036.9M1534.3 1043.6L1021.9 1339.5M937.4 1388.2L896.3 1412.0M464.1 916.2L460.9 918.1M429.5 936.2L426.2 938.1M420.8 941.2L417.5 943.1M412.1 946.2L408.9 948.1M403.5 951.2L400.2 953.1M394.8 956.2L391.5 958.1M386.1 961.2L382.9 963.1M377.5 966.2L374.2 968.1M368.8 971.2L365.5 973.1M360.1 976.2L356.9 978.1M351.5 981.2L348.2 983.1M342.8 986.2L339.5 988.1M334.1 991.2L330.9 993.1M325.5 996.2L322.2 998.1M316.8 1001.2L313.5 1003.1M308.1 1006.2L304.9 1008.1M299.5 1011.2L296.2 1013.1M290.8 1016.2L287.6 1018.1M282.1 1021.2L278.9 1023.1M273.5 1026.2L270.2 1028.1M264.8 1031.2L261.6 1033.1M1531.0 1040.6L1017.6 1337.0M933.1 1385.8L896.3 1407.1M1095.2 556.4L1095.2 209.9M1095.2 209.9L892.9 93.0M892.9 489.6L892.9 93.0M1097.5 208.6L1095.2 209.9M1308.3 679.4L1308.3 332.9M1308.3 332.9L1105.9 216.0M1105.9 561.3L1105.9 216.0M1310.5 331.6L1308.3 332.9M1359.2 945.2L1365.7 949.0M1371.1 952.2L1374.4 954.0M1379.9 957.2L1383.1 959.1M1388.6 962.2L1391.8 964.1M1397.3 967.2L1400.5 969.1M1409.2 974.1L1412.5 976.0M1417.9 979.2L1421.2 981.0M1426.6 984.2L1429.9 986.1M1444.0 994.2L1447.3 996.1M1456.0 1001.2L1459.3 1003.0M1464.7 1006.2L1468.0 1008.1M1482.1 1016.2L1485.4 1018.1M1494.1 1023.1L1497.4 1025.0M1502.8 1028.2L1506.1 1030.0M1511.5 1033.2L1514.8 1035.1M1521.3 1038.8L1521.3 455.9M1521.3 455.9L1318.9 339.0M1318.9 684.3L1318.9 339.0M1524.7 453.9L1521.3 455.9M886.9 493.3L886.9 96.7M684.5 795.3L684.5 213.6M677.7 791.4L677.7 215.9M835.8 709.2L832.5 711.1M823.8 716.1L820.5 718.0M815.1 721.2L811.8 723.0M806.4 726.2L803.1 728.1M797.7 731.2L794.4 733.1M789.0 736.2L785.7 738.1M777.0 743.2L773.7 745.0M768.3 748.2L765.0 750.1M759.6 753.2L756.3 755.1M750.9 758.2L747.6 760.1M738.9 765.1L735.7 767.0M730.2 770.2L727.0 772.0M721.5 775.2L718.3 777.1M712.8 780.2L709.5 782.1M704.1 785.2L700.8 787.1M692.1 792.1L688.9 794.0M886.9 96.7L684.5 213.6M678.1 800.2L678.1 217.3M475.8 917.1L475.8 883.3M475.8 805.7L475.8 334.1M678.1 800.2L674.9 802.1M666.2 807.1L662.9 809.0M657.5 812.2L654.2 814.1M648.8 817.2L645.5 819.1M496.4 905.1L493.2 907.0M487.7 910.2L484.5 912.1M479.0 915.2L475.8 917.1M678.1 217.3L475.8 334.1M894.1 90.6L894.1 83.1M1108.2 214.2L1108.2 206.7M1108.2 206.7L1098.6 201.1M1098.6 557.6L1098.6 201.1M1321.3 337.2L1321.3 329.7M1321.3 329.7L1311.7 324.1M1311.7 680.6L1311.7 324.1M1544.9 1038.1L1544.9 447.7M1544.9 447.7L1542.5 446.4M1525.8 1038.1L1535.4 1043.6M1535.4 1043.6L1535.4 453.3M1535.4 453.3L1525.8 447.7M1525.8 1038.1L1525.8 447.7M1544.9 1038.1L1535.4 1043.6M1544.9 447.7L1535.4 453.3M895.2 91.2L895.2 83.7M693.9 790.3L693.9 747.7M693.9 745.2L693.9 742.7M693.9 740.2L693.9 737.7M693.9 735.2L693.9 732.7M693.9 730.2L693.9 727.7M693.9 725.2L693.9 722.7M693.9 720.2L693.9 717.7M693.9 715.2L693.9 712.7M693.9 710.2L693.9 707.7M693.9 705.2L693.9 702.7M693.9 700.2L693.9 697.7M693.9 695.2L693.9 692.7M693.9 690.2L693.9 687.7M693.9 685.2L693.9 682.7M693.9 680.2L693.9 343.8M693.9 341.2L693.9 338.7M693.9 336.2L693.9 333.7M693.9 331.2L693.9 328.7M693.9 326.2L693.9 323.7M693.9 321.2L693.9 318.7M693.9 316.2L693.9 313.7M693.9 311.2L693.9 308.7M693.9 306.2L693.9 303.7M693.9 301.2L693.9 298.7M693.9 296.2L693.9 293.7M693.9 291.2L693.9 288.7M693.9 286.2L693.9 283.7M693.9 281.2L693.9 278.7M693.9 276.2L693.9 199.9M684.3 213.0L684.3 205.4M686.7 794.4L684.3 795.8M693.9 199.9L684.3 205.4M483.0 912.0L483.0 909.5M483.0 907.0L483.0 904.5M483.0 902.0L483.0 887.0M483.0 798.2L483.0 795.7M483.0 793.2L483.0 790.7M483.0 788.2L483.0 785.7M483.0 783.2L483.0 780.7M483.0 778.2L483.0 775.7M483.0 773.2L483.0 770.7M483.0 768.2L483.0 765.7M483.0 763.2L483.0 760.7M483.0 758.2L483.0 755.7M483.0 753.2L483.0 750.7M483.0 748.2L483.0 745.7M483.0 743.2L483.0 740.7M483.0 738.2L483.0 735.7M483.0 733.2L483.0 730.7M483.0 728.2L483.0 725.7M483.0 723.2L483.0 720.7M483.0 718.2L483.0 715.7M483.0 713.2L483.0 710.7M483.0 708.2L483.0 705.7M483.0 703.2L483.0 700.7M483.0 698.2L483.0 695.7M483.0 693.2L483.0 690.7M483.0 688.1L483.0 685.6M483.0 683.1L483.0 680.6M483.0 678.1L483.0 675.6M483.0 673.1L483.0 670.6M483.0 668.1L483.0 665.6M483.0 663.1L483.0 660.6M483.0 658.1L483.0 655.6M483.0 653.1L483.0 650.6M483.0 648.1L483.0 645.6M483.0 643.1L483.0 640.6M483.0 638.1L483.0 635.6M483.0 633.1L483.0 630.6M483.0 628.1L483.0 625.6M483.0 623.1L483.0 620.6M483.0 618.1L483.0 615.6M483.0 613.1L483.0 610.6M483.0 608.1L483.0 605.6M483.0 603.1L483.0 600.6M483.0 598.1L483.0 595.6M483.0 593.1L483.0 590.6M483.0 588.1L483.0 585.6M483.0 583.1L483.0 580.6M483.0 578.1L483.0 575.6M483.0 573.1L483.0 570.6M483.0 568.1L483.0 565.6M483.0 563.1L483.0 560.6M483.0 558.1L483.0 555.6M483.0 553.1L483.0 550.6M483.0 548.1L483.0 545.6M483.0 543.1L483.0 540.6M483.0 538.1L483.0 535.6M483.0 533.1L483.0 530.6M483.0 528.1L483.0 525.5M483.0 523.0L483.0 520.5M483.0 518.0L483.0 515.5M483.0 513.0L483.0 510.5M483.0 508.0L483.0 505.5M483.0 503.0L483.0 500.5M483.0 498.0L483.0 441.7M483.0 439.2L483.0 436.7M483.0 434.2L483.0 431.7M483.0 429.2L483.0 426.7M483.0 424.2L483.0 421.7M483.0 419.2L483.0 416.7M483.0 414.2L483.0 411.7M483.0 409.2L483.0 406.7M483.0 404.2L483.0 401.7M483.0 399.2L483.0 396.7M483.0 394.2L483.0 391.7M483.0 389.2L483.0 386.7M483.0 384.2L483.0 381.7M483.0 379.2L483.0 376.7M483.0 374.2L483.0 371.7M483.0 369.2L483.0 366.7M483.0 364.2L483.0 361.7M483.0 359.2L483.0 356.7M483.0 354.2L483.0 351.7M483.0 349.2L483.0 346.7M483.0 344.2L483.0 341.7M483.0 339.2L483.0 336.7M483.0 334.2L483.0 331.7M483.0 329.2L483.0 321.7M463.8 912.0L472.2 916.9M473.4 916.3L473.4 881.3M473.4 807.5L473.4 327.2M473.4 327.2L463.8 321.7M463.8 912.0L463.8 875.8M463.8 813.2L463.8 321.7M483.0 321.7L473.4 327.2M894.9 73.4L892.5 74.8M1540.7 443.4L1532.2 448.4M891.0 78.2L1532.2 448.4M920.1 85.1L923.3 87.0M928.7 90.1L932.0 92.0M937.4 95.1L940.7 97.0M946.1 100.1L949.3 102.0M954.7 105.1L958.0 107.0M963.4 110.1L966.7 112.0M972.1 115.1L975.3 117.0M980.7 120.1L984.0 122.0M989.4 125.2L992.6 127.0M998.1 130.2L1001.3 132.0M1006.7 135.2L1010.0 137.0M1015.4 140.2L1018.6 142.0M1024.1 145.2L1027.3 147.0M1032.7 150.2L1036.0 152.0M1041.4 155.2L1044.6 157.0M1050.1 160.2L1053.3 162.0M1058.7 165.2L1062.0 167.0M1067.4 170.2L1070.6 172.1M1076.0 175.2L1079.3 177.1M1084.7 180.2L1088.0 182.1M1093.4 185.2L1096.6 187.1M1102.0 190.2L1105.3 192.1M1110.7 195.2L1114.0 197.1M1119.4 200.2L1122.6 202.1M1128.0 205.2L1131.3 207.1M1136.7 210.2L1139.9 212.1M1145.4 215.2L1148.6 217.1M1154.0 220.2L1157.3 222.1M1162.7 225.2L1165.9 227.1M1171.4 230.2L1174.6 232.1M1180.0 235.2L1183.3 237.1M1188.7 240.2L1191.9 242.1M1197.3 245.2L1200.6 247.1M1206.0 250.2L1209.3 252.1M1214.7 255.2L1217.9 257.1M1223.3 260.2L1226.6 262.1M1232.0 265.2L1235.3 267.1M1240.7 270.2L1243.9 272.1M1249.3 275.2L1252.6 277.1M1258.0 280.2L1261.3 282.1M1266.7 285.2L1269.9 287.1M1275.3 290.2L1278.6 292.1M1284.0 295.2L1287.2 297.1M1292.7 300.2L1295.9 302.1M1301.3 305.2L1304.6 307.1M1310.0 310.2L1313.2 312.1M1318.7 315.2L1321.9 317.1M1347.9 332.1L1351.1 334.0M1356.6 337.1L1359.8 339.0M1365.2 342.1L1368.5 344.0M1373.9 347.1L1377.1 349.0M1382.6 352.1L1385.8 354.0M1391.2 357.1L1394.5 359.0M1399.9 362.1L1403.1 364.0M1408.5 367.1L1411.8 369.0M1417.2 372.2L1420.5 374.0M1425.9 377.2L1429.1 379.0M1434.5 382.2L1437.8 384.0M1443.2 387.2L1446.5 389.0M1451.9 392.2L1455.1 394.0M1460.5 397.2L1463.8 399.0M1469.2 402.2L1472.5 404.0M1477.9 407.2L1481.1 409.0M1486.5 412.2L1489.8 414.0M1495.2 417.2L1498.4 419.0M1503.9 422.2L1507.1 424.1M1512.5 427.2L1515.8 429.1M1521.2 432.2L1524.4 434.1M1529.9 437.2L1533.1 439.1M1538.5 442.2L1540.7 443.4M895.3 90.5L897.5 91.8M905.1 96.1L908.3 98.0M913.7 101.1L917.0 103.0M931.1 111.1L934.3 113.0M939.7 116.1L943.0 118.0M957.0 126.2L960.3 128.0M965.7 131.2L969.0 133.0M983.0 141.2L986.3 143.0M991.7 146.2L995.0 148.0M1009.0 156.2L1012.3 158.0M1017.7 161.2L1021.0 163.0M1035.0 171.2L1038.3 173.1M1043.7 176.2L1046.9 178.1M1061.0 186.2L1064.3 188.1M1069.7 191.2L1072.9 193.1M1087.0 201.2L1090.3 203.1M1095.7 206.2L1097.8 207.4M1113.0 216.2L1116.3 218.1M1121.7 221.2L1124.9 223.1M1139.0 231.2L1142.3 233.1M1147.7 236.2L1150.9 238.1M1165.0 246.2L1168.2 248.1M1173.7 251.2L1176.9 253.1M1182.3 256.2L1185.6 258.1M1191.0 261.2L1194.2 263.1M1199.7 266.2L1202.9 268.1M1208.3 271.2L1211.6 273.1M1217.0 276.2L1220.2 278.1M1225.7 281.2L1228.9 283.1M1234.3 286.2L1237.6 288.1M1243.0 291.2L1246.2 293.1M1251.6 296.2L1254.9 298.1M1260.3 301.2L1263.6 303.1M1269.0 306.2L1272.2 308.1M1277.6 311.2L1280.9 313.1M1286.3 316.2L1289.6 318.1M1306.9 328.1L1311.2 330.6M1324.2 338.1L1327.5 340.0M1332.9 343.1L1336.1 345.0M1341.5 348.1L1344.8 350.0M1350.2 353.1L1353.5 355.0M1358.9 358.1L1362.1 360.0M1367.5 363.1L1370.8 365.0M1376.2 368.2L1379.4 370.0M1384.9 373.2L1388.1 375.0M1393.5 378.2L1396.8 380.0M1402.2 383.2L1405.4 385.0M1410.9 388.2L1414.1 390.0M1419.5 393.2L1422.8 395.0M1428.2 398.2L1431.4 400.0M1436.9 403.2L1440.1 405.0M1445.5 408.2L1448.8 410.0M1454.2 413.2L1457.4 415.0M1462.8 418.2L1466.1 420.1M1471.5 423.2L1474.8 425.1M1480.2 428.2L1483.4 430.1M1488.8 433.2L1492.1 435.1M1497.5 438.2L1500.8 440.1M1506.2 443.2L1509.4 445.1M1514.8 448.2L1518.1 450.1M473.4 324.1L464.9 319.2M473.4 324.1L473.4 326.9M473.4 329.8L473.4 334.0M890.9 73.2L887.7 75.1M882.3 78.2L879.0 80.1M873.6 83.2L870.3 85.1M861.7 90.1L858.4 92.0M853.0 95.1L849.7 97.0M844.3 100.1L841.1 102.0M835.7 105.2L832.4 107.0M827.0 110.2L823.7 112.0M818.3 115.2L815.1 117.0M809.6 120.2L806.4 122.1M801.0 125.2L797.7 127.1M792.3 130.2L789.0 132.1M783.6 135.2L780.4 137.1M774.9 140.2L771.7 142.1M766.3 145.2L763.0 147.1M757.6 150.2L754.3 152.1M748.9 155.2L745.7 157.1M740.3 160.2L737.0 162.1M731.6 165.2L728.3 167.1M722.9 170.2L719.7 172.1M711.0 177.1L707.7 179.0M702.3 182.1L699.1 184.0M693.6 187.1L690.4 189.0M685.0 192.2L681.7 194.0M676.3 197.2L673.0 199.0M667.6 202.2L664.4 204.0M658.9 207.2L655.7 209.1M650.3 212.2L647.0 214.1M641.6 217.2L638.3 219.1M632.9 222.2L629.7 224.1M624.3 227.2L621.0 229.1M615.6 232.2L612.3 234.1M606.9 237.2L603.7 239.1M598.2 242.2L595.0 244.1M589.6 247.2L586.3 249.1M580.9 252.2L577.6 254.1M560.3 264.1L557.0 266.0M551.6 269.1L548.4 271.0M542.9 274.1L539.7 276.0M534.3 279.2L531.0 281.0M525.6 284.2L522.3 286.0M516.9 289.2L513.7 291.0M508.3 294.2L505.0 296.1M499.6 299.2L496.3 301.1M490.9 304.2L487.7 306.1M482.2 309.2L479.0 311.1M473.6 314.2L470.3 316.1M899.5 78.1L473.4 324.1M895.1 90.5L885.4 96.1M876.7 101.1L873.4 103.0M868.0 106.1L864.8 108.0M859.4 111.1L856.1 113.0M850.7 116.2L847.4 118.0M842.0 121.2L838.8 123.0M833.3 126.2L830.1 128.0M824.7 131.2L821.4 133.1M816.0 136.2L812.7 138.1M807.3 141.2L804.1 143.1M798.6 146.2L795.4 148.1M790.0 151.2L786.7 153.1M781.3 156.2L778.0 158.1M772.6 161.2L769.4 163.1M764.0 166.2L760.7 168.1M755.3 171.2L752.0 173.1M746.6 176.2L743.4 178.1M726.0 188.1L722.8 190.0M717.3 193.1L714.1 195.0M708.7 198.1L705.4 200.0M700.0 203.2L696.7 205.0M691.3 208.2L688.1 210.0M682.6 213.2L676.1 216.9M674.0 218.2L670.7 220.1M665.3 223.2L662.0 225.1M656.6 228.2L653.4 230.1M648.0 233.2L644.7 235.1M639.3 238.2L636.0 240.1M630.6 243.2L627.4 245.1M621.9 248.2L618.7 250.1M613.3 253.2L610.0 255.1M604.6 258.2L601.3 260.1M595.9 263.2L592.7 265.1M584.0 270.1L580.7 272.0M575.3 275.1L572.1 277.0M566.6 280.1L563.4 282.0M558.0 285.2L554.7 287.0M549.3 290.2L546.0 292.0M540.6 295.2L537.4 297.0M532.0 300.2L528.7 302.1M523.3 305.2L520.0 307.1M514.6 310.2L511.4 312.1M505.9 315.2L502.7 317.1M497.3 320.2L494.0 322.1M488.6 325.2L485.3 327.1M479.9 330.2L476.7 332.1M884.1 494.8L882.8 494.1M706.8 599.1L712.1 602.2M712.1 602.2L712.1 597.2M712.1 597.2L706.8 594.2M706.8 599.1L706.8 594.2M840.1 528.2L712.1 602.2M842.4 515.9L840.2 517.1M834.8 520.2L831.6 522.1M822.9 527.1L820.7 528.4M779.5 552.2L776.2 554.1M770.8 557.2L767.5 559.1M762.1 562.2L759.9 563.5M715.5 589.2L712.2 591.0M843.4 521.4L818.4 535.8M813.0 539.0L809.8 540.9M787.0 554.0L754.4 572.8M749.0 575.9L745.7 577.8M723.0 591.0L712.1 597.2M886.8 427.5L886.8 422.6M886.8 422.6L882.8 420.3M706.8 525.3L712.1 528.4M712.1 528.4L712.1 523.4M712.1 523.4L706.8 520.4M706.8 525.3L706.8 520.4M886.8 427.5L712.1 528.4M837.0 445.2L833.7 447.1M828.3 450.2L825.0 452.1M780.6 477.8L778.4 479.0M773.0 482.2L769.7 484.0M764.3 487.2L761.0 489.0M712.2 517.2L709.0 519.1M886.8 422.6L883.5 424.5M873.8 430.1L869.4 432.6M861.8 437.0L857.5 439.5M849.9 443.9L819.5 461.4M809.8 467.1L805.4 469.6M797.8 474.0L794.6 475.8M783.7 482.1L755.5 498.4M751.2 500.9L747.9 502.8M745.7 504.0L743.6 505.3M733.8 510.9L730.6 512.8M725.1 515.9L721.9 517.8M719.7 519.1L712.1 523.4M886.8 353.7L886.8 348.8M886.8 348.8L882.8 346.5M706.8 451.5L712.1 454.6M712.1 454.6L712.1 449.6M712.1 449.6L706.8 446.6M706.8 451.5L706.8 446.6M886.8 353.7L712.1 454.6M839.2 370.1L835.9 372.0M830.5 375.2L827.2 377.0M778.4 405.2L775.1 407.1M769.7 410.2L766.5 412.1M714.4 442.2L711.1 444.1M709.0 445.3L706.8 446.6M886.8 348.8L883.5 350.7M872.7 356.9L869.4 358.8M864.0 361.9L860.8 363.8M843.4 373.9L819.5 387.6M811.9 392.0L805.4 395.8M800.0 398.9L796.7 400.8M785.9 407.1L755.5 424.6M747.9 429.0L744.7 430.9M733.8 437.1L729.5 439.6M721.9 444.0L712.1 449.6M886.8 279.9L886.8 275.0M886.8 275.0L884.1 273.5M706.8 377.7L712.1 380.8M712.1 380.8L712.1 375.9M712.1 375.9L706.8 372.8M706.8 377.7L706.8 372.8M886.8 279.9L712.1 380.8M835.9 298.2L832.6 300.1M827.2 303.2L824.0 305.1M780.6 330.2L777.3 332.1M771.9 335.2L768.6 337.1M763.2 340.2L759.9 342.1M716.5 367.1L713.3 369.0M886.8 275.0L882.5 277.5M874.9 281.9L870.5 284.4M866.2 286.9L862.9 288.8M860.8 290.0L858.6 291.3M848.8 296.9L845.6 298.8M843.4 300.1L819.5 313.8M808.7 320.1L806.5 321.4M796.7 327.0L793.5 328.9M784.8 333.9L755.5 350.8M750.1 353.9L746.8 355.8M732.7 364.0L729.5 365.8M724.0 369.0L712.1 375.9M886.8 206.1L886.8 201.2M886.8 201.2L885.5 200.4M882.8 198.9L881.5 198.1M706.8 303.9L712.1 307.0M712.1 307.0L712.1 302.1M712.1 302.1L706.8 299.0M706.8 303.9L706.8 299.0M886.8 206.1L712.1 307.0M881.5 198.1L878.2 200.0M872.8 203.1L869.5 205.0M864.1 208.2L860.9 210.0M855.4 213.2L852.2 215.0M846.7 218.2L843.5 220.1M838.1 223.2L834.8 225.1M829.4 228.2L826.1 230.1M820.7 233.2L817.5 235.1M812.0 238.2L808.8 240.1M803.3 243.2L800.1 245.1M794.7 248.2L791.4 250.1M782.7 255.1L779.5 257.0M774.1 260.1L770.8 262.0M765.4 265.2L762.1 267.0M756.7 270.2L753.4 272.0M748.0 275.2L744.8 277.1M739.3 280.2L736.1 282.1M730.7 285.2L727.4 287.1M722.0 290.2L718.7 292.1M713.3 295.2L710.0 297.1M886.8 201.2L712.1 302.1M883.1 495.4L883.1 445.0M844.7 517.5L844.7 467.2M843.4 520.6L843.4 466.4M878.5 446.2L875.2 448.1M866.4 453.2L863.2 455.1M857.7 458.2L854.4 460.1M845.6 465.2L843.4 466.4M883.1 445.0L844.7 467.2M821.3 534.8L821.3 480.7M782.9 557.0L782.9 502.8M781.7 556.2L781.7 502.1M821.3 534.8L782.9 557.0M817.8 481.2L811.2 485.0M805.8 488.2L802.5 490.1M793.7 495.1L790.4 497.0M784.9 500.2L781.7 502.1M821.3 480.7L782.9 502.8M759.5 570.5L759.5 516.4M721.2 592.6L721.2 538.5M719.9 591.9L719.9 537.8M759.5 570.5L721.2 592.6M753.8 518.2L750.6 520.1M745.1 523.2L741.8 525.1M733.0 530.2L729.7 532.1M759.5 516.4L721.2 538.5M883.1 425.4L883.1 371.2M844.7 447.5L844.7 393.4M843.4 446.8L843.4 392.6M883.1 425.4L844.7 447.5M880.7 371.1L877.4 373.0M871.9 376.2L868.6 378.1M859.9 383.2L856.6 385.1M851.1 388.2L847.8 390.1M845.6 391.4L843.4 392.6M883.1 371.2L844.7 393.4M821.3 461.0L821.3 406.9M782.9 483.2L782.9 429.0M781.7 482.4L781.7 428.3M821.3 461.0L782.9 483.2M820.0 406.2L816.7 408.1M811.2 411.2L804.7 415.0M799.2 418.2L795.9 420.1M787.1 425.1L783.9 427.0M821.3 406.9L782.9 429.0M759.5 496.7L759.5 442.6M721.2 518.8L721.2 464.7M719.9 518.1L719.9 464.0M759.5 496.7L721.2 518.8M758.2 441.8L756.0 443.1M747.3 448.2L744.0 450.1M738.5 453.2L735.2 455.1M726.5 460.2L723.2 462.1M759.5 442.6L721.2 464.7M883.1 351.6L883.1 297.4M844.7 373.7L844.7 319.6M843.4 373.0L843.4 318.8M883.1 351.6L844.7 373.7M874.1 301.1L870.8 303.0M865.4 306.2L862.1 308.1M853.3 313.2L850.0 315.1M883.1 297.4L844.7 319.6M821.3 387.2L821.3 333.1M782.9 409.4L782.9 355.3M781.7 408.6L781.7 354.5M821.3 387.2L782.9 409.4M813.4 336.2L810.1 338.1M804.7 341.2L798.1 345.0M792.6 348.2L789.3 350.1M783.9 353.2L781.7 354.5M821.3 333.1L782.9 355.3M759.5 422.9L759.5 368.8M721.2 445.0L721.2 390.9M719.9 444.3L719.9 390.2M759.5 422.9L721.2 445.0M752.8 371.2L749.5 373.1M740.7 378.2L737.4 380.1M731.9 383.2L728.6 385.1M759.5 368.8L721.2 390.9M883.1 277.8L883.1 223.6M844.7 299.9L844.7 245.8M843.4 299.2L843.4 245.1M883.1 277.8L844.7 299.9M879.6 224.2L876.3 226.1M867.5 231.1L864.3 233.0M858.8 236.2L855.5 238.1M846.7 243.2L843.4 245.1M883.1 223.6L844.7 245.8M821.3 313.4L821.3 259.3M782.9 335.6L782.9 281.5M781.7 334.8L781.7 280.7M821.3 313.4L782.9 335.6M818.9 259.2L815.6 261.1M806.9 266.2L803.6 268.1M798.1 271.2L791.5 275.0M786.0 278.2L781.7 280.7M821.3 259.3L782.9 281.5M759.5 349.1L759.5 295.0M721.2 371.2L721.2 317.1M719.9 370.5L719.9 316.4M759.5 349.1L721.2 371.2M754.9 296.1L751.7 298.0M746.2 301.2L742.9 303.1M734.1 308.2L730.8 310.1M725.4 313.2L722.1 315.1M759.5 295.0L721.2 317.1M673.8 624.3L673.8 619.4M671.1 617.8L669.8 617.1M493.8 722.1L499.1 725.2M499.1 725.2L499.1 720.2M499.1 720.2L493.8 717.2M493.8 722.1L493.8 717.2M673.8 624.3L499.1 725.2M629.4 638.9L627.2 640.1M621.8 643.2L618.5 645.1M609.8 650.1L607.7 651.4M566.4 675.2L563.2 677.1M557.8 680.2L554.5 682.1M549.1 685.2L545.8 687.1M502.4 712.1L499.2 714.0M673.8 619.4L668.3 622.5M664.0 625.0L657.5 628.8M652.1 631.9L648.8 633.8M634.7 641.9L607.6 657.6M600.0 662.0L596.7 663.9M573.9 677.0L543.6 694.5M536.0 698.9L532.7 700.8M521.9 707.1L517.5 709.6M509.9 714.0L499.1 720.2M673.8 550.5L673.8 545.6M673.8 545.6L669.8 543.3M493.8 648.3L499.1 651.4M499.1 651.4L499.1 646.4M499.1 646.4L493.8 643.4M493.8 648.3L493.8 643.4M673.8 550.5L499.1 651.4M624.0 568.2L620.7 570.1M615.3 573.2L612.0 575.1M567.5 600.8L565.4 602.0M559.9 605.1L556.7 607.0M551.3 610.2L548.0 612.0M499.2 640.2L495.9 642.1M673.8 545.6L670.5 547.5M660.7 553.1L658.6 554.4M648.8 560.0L645.6 561.9M636.9 566.9L607.6 583.8M602.2 586.9L598.9 588.8M596.7 590.1L594.6 591.3M584.8 596.9L581.5 598.8M570.7 605.1L543.6 620.8M538.1 623.9L534.9 625.8M532.7 627.0L528.4 629.5M520.8 633.9L517.5 635.8M512.1 638.9L508.8 640.8M506.7 642.1L499.1 646.4M673.8 476.7L673.8 471.8M673.8 471.8L669.8 469.5M493.8 574.5L499.1 577.6M499.1 577.6L499.1 572.6M499.1 572.6L493.8 569.6M493.8 574.5L493.8 569.6M673.8 476.7L499.1 577.6M626.1 493.1L622.9 495.0M617.4 498.2L614.2 500.0M565.4 528.2L562.1 530.1M556.7 533.2L553.4 535.1M548.0 538.2L545.8 539.5M501.3 565.2L498.1 567.1M495.9 568.3L493.8 569.6M673.8 471.8L670.5 473.7M662.9 478.1L658.6 480.6M651.0 484.9L647.7 486.8M636.9 493.1L632.5 495.6M630.4 496.8L606.5 510.6M598.9 515.0L594.6 517.5M587.0 521.9L583.7 523.8M572.9 530.0L542.5 547.6M534.9 552.0L531.6 553.8M520.8 560.1L516.4 562.6M508.8 567.0L499.1 572.6M673.8 402.9L673.8 398.0M673.8 398.0L671.1 396.5M493.8 500.7L499.1 503.8M499.1 503.8L499.1 498.8M499.1 498.8L493.8 495.8M493.8 500.7L493.8 495.8M673.8 402.9L499.1 503.8M622.9 421.2L619.6 423.1M614.2 426.2L610.9 428.1M567.5 453.2L564.3 455.1M558.9 458.2L555.6 460.1M550.2 463.2L546.9 465.1M503.5 490.1L500.3 492.0M673.8 398.0L670.5 399.9M661.8 404.9L658.6 406.8M653.1 409.9L649.9 411.8M647.7 413.0L645.6 414.3M635.8 419.9L632.5 421.8M630.4 423.0L606.5 436.8M601.1 440.0L597.8 441.8M583.7 450.0L580.5 451.9M575.0 455.0L542.5 473.8M537.1 476.9L533.8 478.8M519.7 486.9L516.4 488.8M511.0 492.0L499.1 498.8M673.8 329.1L673.8 324.2M673.8 324.2L672.4 323.4M669.8 321.9L668.4 321.1M493.8 426.9L499.1 430.0M499.1 430.0L499.1 425.0M499.1 425.0L493.8 422.0M493.8 426.9L493.8 422.0M673.8 329.1L499.1 430.0M659.8 326.1L656.5 328.0M651.1 331.1L647.8 333.0M642.4 336.2L639.1 338.0M633.7 341.2L630.5 343.0M625.0 346.2L621.8 348.1M616.4 351.2L613.1 353.1M607.7 356.2L604.4 358.1M599.0 361.2L595.7 363.1M590.3 366.2L587.1 368.1M581.6 371.2L578.4 373.1M573.0 376.2L569.7 378.1M561.0 383.1L557.8 385.0M552.3 388.1L549.1 390.0M543.7 393.2L540.4 395.0M535.0 398.2L531.7 400.0M526.3 403.2L523.0 405.1M517.6 408.2L514.4 410.1M508.9 413.2L505.7 415.1M500.3 418.2L497.0 420.1M673.8 324.2L499.1 425.0M670.0 622.1L670.0 568.0M631.7 644.3L631.7 590.2M630.4 643.5L630.4 589.4M670.0 622.1L631.7 644.3M665.5 569.2L662.2 571.1M653.4 576.1L650.1 578.0M644.7 581.2L641.4 583.1M632.6 588.2L630.4 589.4M670.0 568.0L631.7 590.2M608.3 657.8L608.3 603.7M569.9 680.0L569.9 625.8M568.6 679.2L568.6 625.1M608.3 657.8L569.9 680.0M604.8 604.2L601.5 606.1M592.7 611.2L589.4 613.1M580.7 618.1L577.4 620.0M571.9 623.2L568.6 625.1M608.3 603.7L569.9 625.8M546.5 693.5L546.5 639.4M508.1 715.6L508.1 661.5M506.9 714.9L506.9 660.8M546.5 693.5L508.1 715.6M540.8 641.2L537.5 643.1M532.1 646.2L528.8 648.1M520.0 653.2L516.7 655.1M511.2 658.2L506.9 660.8M546.5 639.4L508.1 661.5M670.0 548.3L670.0 494.2M631.7 570.5L631.7 516.4M630.4 569.7L630.4 515.6M670.0 548.3L631.7 570.5M668.8 493.5L664.4 496.0M658.9 499.2L655.6 501.1M646.8 506.1L643.6 508.0M638.1 511.2L634.8 513.1M632.6 514.4L630.4 515.6M670.0 494.2L631.7 516.4M608.3 584.0L608.3 529.9M569.9 606.2L569.9 552.0M568.6 605.4L568.6 551.3M608.3 584.0L569.9 606.2M607.0 529.2L603.7 531.1M598.2 534.2L594.9 536.1M586.2 541.2L582.9 543.1M574.1 548.1L570.8 550.0M608.3 529.9L569.9 552.0M546.5 619.7L546.5 565.6M508.1 641.8L508.1 587.7M506.9 641.1L506.9 587.0M546.5 619.7L508.1 641.8M545.2 564.8L543.0 566.1M534.2 571.2L531.0 573.1M525.5 576.2L522.2 578.1M513.4 583.2L510.1 585.1M546.5 565.6L508.1 587.7M670.0 474.6L670.0 420.4M631.7 496.7L631.7 442.6M630.4 496.0L630.4 441.8M670.0 474.6L631.7 496.7M664.4 422.2L657.8 426.0M652.3 429.2L649.0 431.1M640.3 436.1L637.0 438.0M670.0 420.4L631.7 442.6M608.3 510.2L608.3 456.1M569.9 532.4L569.9 478.2M568.6 531.6L568.6 477.5M608.3 510.2L569.9 532.4M600.4 459.2L597.1 461.1M591.6 464.2L588.4 466.1M579.6 471.2L576.3 473.1M570.8 476.2L568.6 477.5M608.3 456.1L569.9 478.2M546.5 545.9L546.5 491.8M508.1 568.0L508.1 513.9M506.9 567.3L506.9 513.2M546.5 545.9L508.1 568.0M539.7 494.2L536.4 496.1M527.7 501.2L524.4 503.1M518.9 506.2L515.6 508.1M546.5 491.8L508.1 513.9M670.0 400.8L670.0 346.6M631.7 422.9L631.7 368.8M630.4 422.2L630.4 368.0M670.0 400.8L631.7 422.9M666.6 347.2L663.3 349.1M657.8 352.2L651.2 356.0M645.8 359.2L642.5 361.1M633.7 366.1L630.4 368.0M670.0 346.6L631.7 368.8M608.3 436.4L608.3 382.3M569.9 458.6L569.9 404.4M568.6 457.8L568.6 447.8M568.6 445.2L568.6 403.7M608.3 436.4L569.9 458.6M605.9 382.2L602.6 384.1M593.8 389.2L590.5 391.1M585.1 394.2L581.8 396.1M573.0 401.2L568.6 403.7M608.3 382.3L569.9 404.4M546.5 472.1L546.5 418.0M508.1 494.2L508.1 440.1M506.9 493.5L506.9 439.4M546.5 472.1L508.1 494.2M541.9 419.1L538.6 421.0M533.1 424.2L529.9 426.1M521.1 431.2L517.8 433.1M512.3 436.2L509.0 438.1M546.5 418.0L508.1 440.1M842.7 783.4L845.4 784.9M846.7 784.4L846.7 527.4M846.7 527.4L841.4 524.3M841.4 781.3L841.4 524.3M1132.2 610.3L1132.2 584.0M1132.2 584.0L1129.5 582.4M1033.1 893.3L1035.8 894.8M1038.5 896.4L1038.5 638.1M1038.5 638.1L1033.1 635.0M1033.1 893.3L1033.1 635.0M1043.9 893.2L1040.6 895.1M1132.2 584.0L1038.5 638.1M1132.2 609.7L1132.2 580.9M1132.2 580.9L1126.9 584.0M861.4 794.1L864.7 796.0M870.1 799.1L873.3 801.0M878.7 804.1L882.0 806.0M896.1 814.1L899.3 816.0M904.7 819.1L908.0 821.0M922.1 829.2L925.3 831.0M930.7 834.2L934.0 836.0M948.1 844.2L951.3 846.0M956.7 849.2L960.0 851.0M974.1 859.2L977.3 861.0M982.7 864.2L986.0 866.1M1000.1 874.2L1003.3 876.1M1008.7 879.2L1012.0 881.1M1026.1 889.2L1029.3 891.1M1035.8 894.8L1035.8 888.7M1035.8 888.7L844.1 778.0M844.1 784.1L844.1 778.0M844.1 698.0L1035.8 808.7M1035.8 808.7L1035.8 802.6M1035.8 802.6L844.1 691.9M844.1 698.0L844.1 691.9M844.1 611.9L1035.8 722.6M1035.8 722.6L1035.8 716.5M1035.8 716.5L844.1 605.8M844.1 611.9L844.1 605.8M1129.5 582.4L1129.5 576.3M1127.4 575.0L1124.1 573.1M1118.7 570.0L1115.5 568.1M1110.0 565.0L1106.8 563.1M1101.4 560.0L1098.1 558.1M1072.1 543.1L1068.9 541.2M1063.5 538.1L1060.2 536.2M1054.8 533.1L1051.5 531.2M1046.1 528.1L1042.9 526.2M1037.5 523.1L1034.2 521.2M1028.8 518.1L1025.6 516.2M1020.1 513.1L1016.9 511.2M1011.5 508.1L1008.2 506.2M1002.8 503.1L999.6 501.2M994.1 498.1L990.9 496.2M985.5 493.1L982.2 491.2M976.8 488.1L973.6 486.2M968.1 483.1L964.9 481.2M959.5 478.1L956.2 476.2M950.8 473.1L947.6 471.2M942.1 468.1L938.9 466.2M844.1 525.8L1035.8 636.5M1035.8 636.5L1035.8 630.4M1035.8 630.4L844.1 519.7M844.1 525.8L844.1 519.7M1123.0 586.2L1119.7 588.1M1114.3 591.2L1111.0 593.1M1102.3 598.1L1099.0 600.0M1093.6 603.2L1090.3 605.1M1084.9 608.2L1081.6 610.1M1072.9 615.1L1069.6 617.0M1064.1 620.2L1060.9 622.1M1055.4 625.2L1052.2 627.1M1043.4 632.1L1040.2 634.0M1038.0 635.3L1035.8 636.5M936.7 466.2L933.5 468.1M928.0 471.2L921.5 475.0M916.0 478.2L912.7 480.0M907.3 483.2L904.0 485.1M898.6 488.2L895.3 490.1M886.6 495.2L883.3 497.0M877.9 500.2L874.6 502.1M869.1 505.2L865.9 507.1M857.2 512.1L853.9 514.0M848.4 517.2L844.1 519.7M1129.5 576.3L1035.8 630.4M1070.4 864.7L1070.4 656.5M1070.4 656.5L1065.1 653.4M1065.1 867.8L1065.1 653.4M1067.3 652.2L1065.1 653.4M1355.9 971.4L1355.9 713.1M1355.9 713.1L1354.6 712.3M1256.8 1022.4L1259.5 1024.0M1262.1 1025.5L1262.1 767.2M1262.1 767.2L1256.8 764.1M1256.8 1022.4L1256.8 764.1M1349.3 975.2L1346.1 977.0M1340.6 980.2L1337.4 982.1M1331.9 985.2L1328.6 987.1M1319.9 992.1L1316.6 994.0M1311.2 997.2L1307.9 999.1M1302.5 1002.2L1299.2 1004.1M1290.5 1009.1L1287.2 1011.0M1281.8 1014.2L1278.5 1016.1M1273.0 1019.2L1269.8 1021.1M1264.3 1024.2L1262.1 1025.5M1355.9 713.1L1262.1 767.2M1355.9 968.3L1355.9 710.0M1355.9 710.0L1352.6 708.1M1355.9 710.0L1354.6 710.8M1351.9 712.3L1350.6 713.1M1236.7 1010.8L1238.9 1012.1M1244.3 1015.2L1247.6 1017.1M1253.0 1020.2L1256.2 1022.1M1259.5 1024.0L1259.5 1017.8M1259.5 1017.8L1242.2 1007.8M1067.8 827.2L1077.5 832.8M1201.0 904.1L1207.5 907.8M1209.7 909.1L1233.5 922.9M1235.7 924.1L1259.5 937.9M1259.5 937.9L1259.5 931.7M1259.5 931.7L1201.0 897.9M1077.5 826.7L1067.8 821.0M1067.8 827.2L1067.8 821.0M1067.8 741.1L1233.5 836.8M1235.7 838.0L1259.5 851.8M1259.5 851.8L1259.5 845.6M1259.5 845.6L1067.8 734.9M1067.8 741.1L1067.8 734.9M1353.2 710.0L1353.2 705.4M1353.2 705.4L1351.1 704.2M1345.6 701.0L1342.4 699.2M1337.0 696.0L1333.7 694.2M1328.3 691.0L1325.1 689.1M1319.6 686.0L1316.4 684.1M1311.0 681.0L1307.7 679.1M1302.3 676.0L1299.1 674.1M1293.6 671.0L1290.4 669.1M1285.0 666.0L1281.7 664.1M1067.8 655.0L1259.5 765.7M1259.5 765.7L1259.5 759.5M1259.5 759.5L1067.8 648.8M1067.8 655.0L1067.8 648.8M1352.1 712.2L1348.9 714.1M1343.4 717.2L1340.1 719.1M1331.4 724.1L1328.2 726.0M1322.7 729.2L1319.4 731.1M1314.0 734.2L1310.7 736.1M1302.0 741.1L1298.7 743.0M1293.3 746.2L1290.0 748.1M1284.6 751.2L1281.3 753.1M1275.8 756.2L1272.6 758.1M1263.8 763.2L1259.5 765.7M1136.4 609.2L1133.2 611.1M1127.7 614.2L1124.4 616.1M1115.7 621.1L1112.4 623.0M1107.0 626.2L1103.7 628.1M1098.3 631.2L1095.0 633.1M1086.3 638.1L1083.0 640.0M1077.6 643.2L1074.3 645.1M1353.2 705.4L1259.5 759.5M1281.3 706.3L1281.3 612.9M1274.8 609.1L1271.6 607.2M1266.2 604.1L1262.9 602.2M1257.5 599.1L1254.2 597.2M1248.8 594.1L1245.6 592.2M1240.2 589.1L1236.9 587.2M1231.5 584.1L1228.2 582.2M1222.8 579.1L1219.6 577.2M1214.2 574.1L1210.9 572.2M1205.5 569.1L1202.2 567.2M1196.8 564.1L1193.6 562.2M1188.2 559.1L1184.9 557.2M1179.5 554.1L1176.3 552.2M1170.8 549.1L1167.6 547.2M1162.2 544.1L1158.9 542.2M1143.9 638.1L1150.4 641.8M1152.6 643.1L1271.7 711.9M1271.7 711.9L1271.7 618.4M1271.7 618.4L1143.9 544.6M1143.9 638.1L1143.9 544.6M1281.3 706.3L1271.7 711.9M1153.5 539.1L1148.7 541.8M1146.3 543.2L1143.9 544.6M1281.3 612.9L1271.7 618.4M697.1 867.8L697.1 856.7M697.1 856.7L692.7 854.2M687.3 851.0L684.0 849.2M678.6 846.0L675.3 844.1M666.6 839.1L663.4 837.2M657.9 834.1L654.7 832.2M649.2 829.1L646.0 827.2M640.5 824.0L637.3 822.1M628.6 817.1L625.3 815.2M619.9 812.1L616.6 810.2M611.2 807.1L607.9 805.2M602.5 802.1L599.2 800.2M593.7 797.0L590.5 795.1M581.8 790.1L578.5 788.2M573.1 785.1L569.8 783.2M564.4 780.1L561.1 778.2M555.7 775.0L552.4 773.2M547.0 770.0L543.7 768.1M420.2 850.5L448.4 866.9M450.6 868.1L486.5 888.9M488.7 890.1L498.5 895.8M500.7 897.0L573.5 939.1M573.5 939.1L573.5 928.0M573.5 928.0L420.2 839.5M420.2 850.5L420.2 839.5M697.1 867.8L573.5 939.1M543.7 768.1L540.5 770.0M535.0 773.1L531.8 775.0M526.4 778.1L523.1 780.0M517.7 783.2L514.4 785.0M509.0 788.2L505.8 790.0M500.4 793.2L497.1 795.0M491.7 798.2L488.4 800.0M483.0 803.2L479.8 805.1M474.3 808.2L471.1 810.1M465.7 813.2L462.4 815.1M457.0 818.2L453.8 820.1M448.3 823.2L445.1 825.1M439.7 828.2L436.4 830.1M431.0 833.2L427.7 835.1M422.3 838.2L420.2 839.5M697.1 856.7L573.5 928.0M552.2 988.3L552.2 926.9M543.7 994.4L543.7 921.7M535.2 988.3L535.2 916.8M454.2 1046.1L454.2 870.6M445.7 1051.0L445.7 865.5M437.2 1046.1L437.2 860.6M680.0 1063.3L680.0 1000.6M680.0 929.2L680.0 876.6M666.7 1065.4L669.1 1066.8M671.5 1068.2L671.5 995.5M671.5 934.1L671.5 882.7M663.0 1063.3L663.0 990.6M663.0 939.2L663.0 886.6M676.4 1065.4L674.0 1066.8M582.1 1119.9L582.1 934.4M571.1 1123.4L573.5 1124.8M573.5 1124.8L573.5 939.3M565.0 1119.9L565.0 934.4M576.0 1123.4L573.5 1124.8M844.9 942.1L841.7 940.2M836.2 937.0L833.0 935.1M824.3 930.1L821.0 928.2M815.6 925.1L812.3 923.2M806.9 920.1L803.6 918.2M798.2 915.0L794.9 913.2M789.5 910.0L786.2 908.1M777.5 903.1L774.2 901.2M768.8 898.1L765.5 896.2M760.1 893.1L756.8 891.2M628.9 971.1L635.4 974.8M637.6 976.1L647.4 981.7M649.6 983.0L673.5 996.8M675.7 998.1L782.3 1059.6M782.3 1059.6L782.3 1048.6M782.3 1048.6L628.9 960.0M628.9 971.1L628.9 960.0M846.2 1022.7L782.3 1059.6M748.1 891.2L744.9 893.0M739.5 896.2L736.2 898.1M730.8 901.2L727.5 903.1M722.1 906.2L718.9 908.1M713.5 911.2L710.2 913.1M704.8 916.2L701.5 918.1M696.1 921.2L692.9 923.1M687.4 926.2L684.2 928.1M678.8 931.2L675.5 933.1M670.1 936.2L666.9 938.1M661.4 941.2L658.2 943.1M652.8 946.2L649.5 948.1M644.1 951.2L640.8 953.1M846.2 1011.6L782.3 1048.6M761.0 1110.1L761.0 1048.6M744.0 1110.1L748.8 1112.9M752.5 1115.0L752.5 1042.3M744.0 1110.1L744.0 1038.6M761.0 1110.1L756.1 1112.9M663.0 1165.4L663.0 991.2M650.8 1169.4L653.3 1170.8M654.5 1170.3L654.5 986.0M646.0 1165.4L646.0 981.1M658.1 1169.4L655.7 1170.8M790.8 1240.4L790.8 1053.7M773.8 1240.4L776.2 1241.8M782.3 1245.3L782.3 1059.8M773.8 1240.4L773.8 1054.9M790.8 1240.4L788.4 1241.8M1244.6 1006.7L1244.6 995.7M1244.6 995.7L1240.2 993.2M1234.8 990.0L1231.6 988.2M1226.2 985.0L1222.9 983.2M1217.5 980.0L1214.3 978.2M1208.8 975.0L1205.6 973.2M1001.7 994.4L1133.8 1070.7M1133.8 1070.7L1133.8 1059.6M1133.8 1059.6L1001.7 983.4M1001.7 994.4L1001.7 983.4M1244.6 1006.7L1133.8 1070.7M1041.9 960.2L1038.6 962.1M1033.2 965.2L1030.0 967.1M1024.5 970.2L1021.3 972.1M1015.8 975.2L1012.6 977.1M1007.2 980.2L1003.9 982.1M1244.6 995.7L1133.8 1059.6M1121.0 1094.1L1121.0 1064.1M1104.0 1094.1L1108.8 1096.9M1112.5 1099.0L1112.5 1057.7M1104.0 1094.1L1104.0 1054.1M1121.0 1094.1L1116.1 1096.9M1035.8 1143.3L1035.8 1015.7M1022.4 1145.4L1027.3 1148.2M1027.3 1148.2L1027.3 1009.4M1018.8 1143.3L1018.8 1005.7M1032.2 1145.4L1027.3 1148.2M1227.5 1154.3L1227.5 1015.5M1215.4 1158.4L1219.0 1160.5M1219.0 1160.5L1219.0 1021.7M1210.5 1154.3L1210.5 1025.5M1222.7 1158.4L1219.0 1160.5M1142.3 1204.8L1142.3 1066.0M1125.3 1204.8L1128.9 1206.9M1133.8 1208.4L1133.8 1069.6M1125.3 1204.8L1125.3 1066.0M1142.3 1204.8L1138.7 1206.9M1200.9 991.3L1200.9 886.8M1194.3 883.0L1191.1 881.1M1182.3 876.1L1179.0 874.2M1173.6 871.0L1170.3 869.2M1052.0 990.2L1058.5 994.0M1064.0 997.2L1067.3 999.1M1072.7 1002.2L1076.0 1004.1M1084.7 1009.2L1088.0 1011.1M1093.5 1014.2L1096.8 1016.1M1105.5 1021.2L1108.8 1023.1M1114.3 1026.2L1117.5 1028.1M1126.3 1033.2L1128.5 1034.4M1128.5 1034.4L1128.5 928.6M1128.5 928.6L1045.4 880.7M1045.4 986.4L1045.4 880.7M1199.8 993.2L1193.2 997.0M1187.7 1000.2L1184.4 1002.1M1175.7 1007.2L1172.4 1009.1M1163.6 1014.1L1160.3 1016.0M1154.8 1019.2L1151.5 1021.1M1142.7 1026.2L1139.4 1028.1M1130.7 1033.1L1128.5 1034.4M1073.9 864.2L1070.6 866.1M1061.9 871.2L1058.6 873.1M1049.8 878.1L1045.4 880.7M1200.9 886.8L1128.5 928.6M1152.6 903.3L1143.7 907.0M1155.1 840.7L1143.7 845.5M1143.7 907.0L1141.0 907.5M1134.3 908.8L1131.6 909.3M1143.7 845.5L1130.2 848.0M1130.2 848.0L1116.1 848.0M1114.7 909.3L1112.0 908.8M1105.3 907.5L1102.6 907.0M1116.1 848.0L1102.6 845.5M1102.6 907.0L1093.7 903.3M1102.6 845.5L1091.2 840.7M1087.0 898.9L1083.9 896.4M1091.2 840.7L1082.9 834.1M1082.9 834.1L1080.4 829.7M1078.5 818.2L1080.4 814.8M1085.0 808.8L1089.1 805.5M1110.7 797.5L1113.4 797.0M1116.1 796.5L1130.2 796.5M1132.9 797.0L1135.6 797.5M1157.2 805.5L1161.3 808.8M1165.9 814.8L1167.8 818.2M1167.8 885.1L1167.8 887.8M1167.8 818.2L1167.8 826.3M1167.8 887.8L1164.0 894.5M1167.8 826.3L1163.4 834.1M1159.3 898.9L1162.4 896.4M1155.1 840.7L1163.4 834.1M986.3 1358.6L986.3 925.9M979.8 922.1L976.5 920.2M971.1 917.1L967.9 915.2M962.5 912.1L959.2 910.2M953.8 907.1L950.6 905.2M945.1 902.1L941.9 900.2M936.5 897.1L933.2 895.2M927.8 892.1L924.6 890.2M919.2 887.1L915.9 885.2M910.5 882.1L907.2 880.2M901.8 877.1L898.6 875.2M893.2 872.1L889.9 870.2M884.5 867.1L881.3 865.2M875.9 862.1L872.6 860.2M867.2 857.1L863.9 855.2M858.5 852.1L855.3 850.2M978.8 1362.9L978.8 930.2M978.8 930.2L846.7 853.9M846.7 1286.7L846.7 853.9M853.0 850.3L846.7 853.9M986.3 925.9L978.8 930.2M1028.3 1354.2L1028.3 1344.4M1026.2 1343.1L1022.9 1341.2M1017.5 1338.1L1014.2 1336.2M1008.8 1333.0L1005.5 1331.2M1000.0 1328.0L996.8 1326.1M988.1 1321.1L985.9 1319.8M804.7 1311.1L807.9 1313.0M822.1 1321.2L825.4 1323.1M830.8 1326.2L834.1 1328.1M842.8 1333.1L846.0 1335.0M851.5 1338.2L854.7 1340.1M860.2 1343.2L863.4 1345.1M868.9 1348.2L872.2 1350.1M880.9 1355.1L884.1 1357.0M889.6 1360.2L892.8 1362.0M898.3 1365.2L901.5 1367.1M907.0 1370.2L910.3 1372.1M919.0 1377.1L922.2 1379.0M927.7 1382.2L930.9 1384.0M933.1 1385.3L937.5 1387.8M939.6 1389.1L949.4 1394.7M951.6 1396.0L953.8 1397.2M953.8 1397.2L953.8 1387.4M953.8 1387.4L804.7 1301.3M804.7 1311.1L804.7 1301.3M1028.3 1354.2L953.8 1397.2M843.0 1279.2L839.8 1281.0M834.3 1284.2L831.0 1286.1M822.2 1291.2L818.9 1293.1M810.2 1298.1L806.9 1300.0M1028.3 1344.4L953.8 1387.4" fill="none" stroke="#2c3841" stroke-width="1.05" stroke-linecap="round" stroke-linejoin="round"/><text x="42" y="1473" font-family="Arial,sans-serif" font-size="14" letter-spacing="1.3" fill="#65727b">AXONOMETRIC   /   SOURCE PLAN RECONSTRUCTION / NTS</text></svg>