<svg xmlns="http://www.w3.org/2000/svg" width="1800" height="1472" viewBox="0 0 1800 1472" role="img" aria-label="CSES / THE BETTER, THE MORE / 2025 RIGHT ELEVATION"><rect width="100%" height="100%" fill="white"/><path d="M1697.9 1379.2L1697.9 1369.8M1697.9 1379.2L1697.9 1369.8M90.0 1379.2L90.0 1368.5M1697.9 1379.2L90.0 1379.2M1697.9 1379.2L90.0 1379.2M1685.4 1368.5L287.6 1368.5M266.3 1368.5L90.0 1368.5M1678.6 1367.2L1678.6 98.2M1685.2 98.2L1678.6 98.2M1663.1 1367.2L1663.1 98.2M1663.1 1367.2L1663.1 98.2M1153.9 1367.2L1153.9 98.2M1663.1 98.2L1153.9 98.2M1137.8 1367.2L1137.8 98.2M1137.8 1367.2L1137.8 98.2M628.7 1367.2L628.7 98.2M1137.8 98.2L628.7 98.2M1710.0 1368.5L1710.0 82.1M1710.0 1368.5L1710.0 82.1M1710.0 1368.5L1710.0 82.1M1710.0 1368.5L1710.0 82.1M1710.0 1368.5L1710.0 82.1M1710.0 1368.5L1710.0 82.1M1710.0 1368.5L1710.0 82.1M1710.0 1368.5L1710.0 82.1M1685.9 1368.5L1685.9 82.1M1710.0 1368.5L1685.9 1368.5M1710.0 82.1L1685.9 82.1M1710.0 1368.5L1710.0 82.1M1710.0 1368.5L1710.0 82.1M1179.4 97.1L1179.4 82.1M1155.3 97.1L1155.3 82.1M1179.4 82.1L1155.3 82.1M648.8 97.1L648.8 82.1M624.6 1367.2L624.6 82.1M648.8 82.1L624.6 82.1M1708.7 76.8L1708.7 80.6M1708.7 76.8L1687.2 76.8M1687.2 76.8L1687.2 80.6M1708.7 76.8L1708.7 80.6M626.0 76.8L626.0 98.2M1685.4 76.8L626.0 76.8M1677.9 98.2L1662.9 98.2M1152.6 98.2L1137.6 98.2M1677.9 98.2L1662.9 98.2M1152.6 98.2L1137.6 98.2M628.5 98.2L626.0 98.2M1649.7 966.5L1649.7 955.8M1649.7 966.5L1649.7 955.8M1210.2 966.5L1210.2 955.8M1649.7 966.5L1624.7 966.5M1380.5 966.5L1210.2 966.5M1649.7 966.5L1624.7 966.5M1380.5 966.5L1210.2 966.5M1649.7 955.8L1624.7 955.8M1380.5 955.8L1210.2 955.8M1649.7 805.7L1649.7 795.0M1649.7 805.7L1649.7 795.0M1210.2 805.7L1210.2 795.0M1649.7 805.7L1624.7 805.7M1380.5 805.7L1210.2 805.7M1649.7 805.7L1624.7 805.7M1380.5 805.7L1210.2 805.7M1649.7 795.0L1618.4 795.0M1380.5 795.0L1210.2 795.0M1649.7 644.9L1649.7 634.2M1649.7 644.9L1649.7 634.2M1210.2 644.9L1210.2 634.2M1649.7 644.9L1517.0 644.9M1491.9 644.9L1210.2 644.9M1649.7 644.9L1517.0 644.9M1491.9 644.9L1210.2 644.9M1649.7 634.2L1517.0 634.2M1491.9 634.2L1210.2 634.2M1649.7 484.1L1649.7 473.4M1649.7 484.1L1649.7 473.4M1210.2 484.1L1210.2 473.4M1649.7 484.1L1210.2 484.1M1649.7 484.1L1210.2 484.1M1649.7 473.4L1210.2 473.4M1649.7 323.3L1649.7 312.6M1649.7 323.3L1649.7 312.6M1210.2 323.3L1210.2 312.6M1649.7 323.3L1210.2 323.3M1649.7 323.3L1210.2 323.3M1649.7 312.6L1210.2 312.6M1633.6 950.4L1633.6 832.5M1633.6 950.4L1633.6 832.5M1633.6 950.4L1623.6 950.4M1633.6 950.4L1623.6 950.4M1633.6 832.5L1623.6 832.5M1322.8 950.4L1322.8 832.5M1322.8 950.4L1322.8 832.5M1226.3 950.4L1226.3 832.5M1322.8 950.4L1226.3 950.4M1322.8 950.4L1226.3 950.4M1322.8 832.5L1226.3 832.5M1633.6 789.6L1633.6 671.7M1633.6 789.6L1633.6 671.7M1537.1 789.6L1537.1 671.7M1633.6 789.6L1537.1 789.6M1633.6 789.6L1537.1 789.6M1633.6 671.7L1537.1 671.7M1478.2 789.6L1478.2 671.7M1478.2 789.6L1478.2 671.7M1381.7 789.6L1381.7 671.7M1478.2 789.6L1381.7 789.6M1478.2 789.6L1381.7 789.6M1478.2 671.7L1381.7 671.7M1322.8 789.6L1322.8 671.7M1322.8 789.6L1322.8 671.7M1226.3 789.6L1226.3 671.7M1322.8 789.6L1226.3 789.6M1322.8 789.6L1226.3 789.6M1322.8 671.7L1226.3 671.7M1633.6 628.8L1633.6 510.9M1633.6 628.8L1633.6 510.9M1537.1 628.8L1537.1 510.9M1633.6 628.8L1537.1 628.8M1633.6 628.8L1537.1 628.8M1633.6 510.9L1537.1 510.9M1478.2 628.8L1478.2 510.9M1478.2 628.8L1478.2 510.9M1381.7 628.8L1381.7 510.9M1478.2 628.8L1381.7 628.8M1478.2 628.8L1381.7 628.8M1478.2 510.9L1381.7 510.9M1322.8 628.8L1322.8 510.9M1322.8 628.8L1322.8 510.9M1226.3 628.8L1226.3 510.9M1322.8 628.8L1226.3 628.8M1322.8 628.8L1226.3 628.8M1322.8 510.9L1226.3 510.9M1633.6 468.0L1633.6 350.1M1633.6 468.0L1633.6 350.1M1537.1 468.0L1537.1 350.1M1633.6 468.0L1537.1 468.0M1633.6 468.0L1537.1 468.0M1633.6 350.1L1537.1 350.1M1478.2 468.0L1478.2 350.1M1478.2 468.0L1478.2 350.1M1381.7 468.0L1381.7 350.1M1478.2 468.0L1381.7 468.0M1478.2 468.0L1381.7 468.0M1478.2 350.1L1381.7 350.1M1322.8 468.0L1322.8 350.1M1322.8 468.0L1322.8 350.1M1226.3 468.0L1226.3 350.1M1322.8 468.0L1226.3 468.0M1322.8 468.0L1226.3 468.0M1322.8 350.1L1226.3 350.1M1113.7 966.5L1113.7 955.8M1113.7 966.5L1113.7 955.8M674.2 966.5L674.2 955.8M1113.7 966.5L1028.6 966.5M844.5 966.5L674.2 966.5M1113.7 966.5L1028.6 966.5M844.5 966.5L674.2 966.5M1113.7 955.8L1028.6 955.8M844.5 955.8L674.2 955.8M1113.7 805.7L1113.7 795.0M1113.7 805.7L1113.7 795.0M674.2 805.7L674.2 795.0M1113.7 805.7L1028.6 805.7M844.5 805.7L674.2 805.7M1113.7 805.7L1028.6 805.7M844.5 805.7L674.2 805.7M1113.7 795.0L1028.6 795.0M844.5 795.0L674.2 795.0M1113.7 644.9L1113.7 634.2M1113.7 644.9L1113.7 634.2M674.2 644.9L674.2 634.2M1113.7 644.9L674.2 644.9M1113.7 644.9L674.2 644.9M1113.7 634.2L674.2 634.2M1113.7 484.1L1113.7 473.4M1113.7 484.1L1113.7 473.4M674.2 484.1L674.2 473.4M1113.7 484.1L674.2 484.1M1113.7 484.1L674.2 484.1M1113.7 473.4L674.2 473.4M1113.7 323.3L1113.7 312.6M1113.7 323.3L1113.7 312.6M674.2 323.3L674.2 312.6M1113.7 323.3L674.2 323.3M1113.7 323.3L674.2 323.3M1113.7 312.6L674.2 312.6M1097.6 950.4L1097.6 832.5M1097.6 950.4L1097.6 832.5M1097.6 950.4L1028.7 950.4M1097.6 950.4L1028.7 950.4M1097.6 832.5L1028.7 832.5M786.8 950.4L786.8 832.5M786.8 950.4L786.8 832.5M690.3 950.4L690.3 832.5M786.8 950.4L690.3 950.4M786.8 950.4L690.3 950.4M786.8 832.5L690.3 832.5M1097.6 789.6L1097.6 671.7M1097.6 789.6L1097.6 671.7M1097.6 789.6L1028.7 789.6M1097.6 789.6L1028.7 789.6M1097.6 671.7L1017.5 671.7M845.7 788.4L845.7 671.7M854.5 671.7L845.7 671.7M786.8 789.6L786.8 671.7M786.8 789.6L786.8 671.7M690.3 789.6L690.3 671.7M786.8 789.6L690.3 789.6M786.8 789.6L690.3 789.6M786.8 671.7L690.3 671.7M1097.6 628.8L1097.6 510.9M1097.6 628.8L1097.6 510.9M1001.2 628.8L1001.2 510.9M1097.6 628.8L1001.2 628.8M1097.6 628.8L1001.2 628.8M1097.6 510.9L1001.2 510.9M942.2 628.8L942.2 510.9M942.2 628.8L942.2 510.9M845.7 628.8L845.7 510.9M942.2 628.8L845.7 628.8M942.2 628.8L845.7 628.8M942.2 510.9L845.7 510.9M786.8 628.8L786.8 510.9M786.8 628.8L786.8 510.9M690.3 628.8L690.3 510.9M786.8 628.8L690.3 628.8M786.8 628.8L690.3 628.8M786.8 510.9L690.3 510.9M1097.6 468.0L1097.6 350.1M1097.6 468.0L1097.6 350.1M1001.2 468.0L1001.2 350.1M1097.6 468.0L1001.2 468.0M1097.6 468.0L1001.2 468.0M1097.6 350.1L1001.2 350.1M942.2 468.0L942.2 350.1M942.2 468.0L942.2 350.1M845.7 468.0L845.7 350.1M942.2 468.0L845.7 468.0M942.2 468.0L845.7 468.0M942.2 350.1L845.7 350.1M786.8 468.0L786.8 350.1M786.8 468.0L786.8 350.1M690.3 468.0L690.3 350.1M786.8 468.0L690.3 468.0M786.8 468.0L690.3 468.0M786.8 350.1L690.3 350.1M1624.2 1367.2L1624.2 805.7M1624.2 1367.2L1624.2 805.7M1617.5 804.4L1617.5 792.3M1617.5 804.4L1617.5 792.3M1617.5 1367.2L1617.5 805.7M1381.7 1367.2L1381.7 805.7M1617.5 805.7L1381.7 805.7M1624.2 1367.2L1624.2 805.7M1624.2 1367.2L1624.2 805.7M1624.2 805.7L1617.5 805.7M1617.5 1367.2L1617.5 1355.1M1617.5 1180.9L1617.5 1167.5M1617.5 993.3L1617.5 979.9M1617.5 805.7L1617.5 792.3M1617.5 804.4L1617.5 792.3M1381.7 804.4L1381.7 792.3M1617.5 792.3L1381.7 792.3M1517.0 784.3L1517.0 580.6M1517.0 784.3L1517.0 580.6M1492.9 784.3L1492.9 580.6M1517.0 784.3L1492.9 784.3M1517.0 784.3L1492.9 784.3M1517.0 580.6L1492.9 580.6M588.5 942.4L588.5 918.3M588.5 942.4L588.5 918.3M588.5 942.4L567.2 942.4M544.6 942.4L320.2 942.4M297.6 942.4L287.6 942.4M588.5 942.4L567.2 942.4M544.6 942.4L320.2 942.4M297.6 942.4L287.6 942.4M567.0 1367.2L567.0 942.2M567.0 1367.2L567.0 942.2M320.5 1346.0L320.5 942.2M320.5 1346.0L320.5 942.2M567.0 1367.2L567.0 942.2M567.0 1367.2L567.0 942.2M320.5 1346.0L320.5 942.2M320.5 1346.0L320.5 942.2M588.5 942.4L588.5 918.3M588.5 942.4L588.5 918.3M588.5 942.4L287.6 942.4M588.5 942.4L567.2 942.4M544.6 942.4L320.2 942.4M297.6 942.4L287.6 942.4M588.5 918.3L287.6 918.3M567.0 1367.2L567.0 942.2M567.0 1367.2L567.0 942.2M320.5 1346.0L320.5 942.2M320.5 1346.0L320.5 942.2M567.0 1367.2L567.0 942.2M567.0 1367.2L567.0 942.2M545.6 1367.2L545.6 942.2M320.5 1346.0L320.5 942.2M320.5 1346.0L320.5 942.2M299.0 1346.0L299.0 942.2M1076.2 1044.2L1076.2 1020.1M1076.2 1044.2L1076.2 1020.1M797.5 1044.2L797.5 1020.1M1076.2 1044.2L797.5 1044.2M1076.2 1044.2L1054.9 1044.2M1032.3 1044.2L840.2 1044.2M817.6 1044.2L797.5 1044.2M1076.2 1020.1L797.5 1020.1M1054.8 1367.2L1054.8 1044.1M1054.8 1367.2L1054.8 1044.1M840.4 1367.2L840.4 1044.1M840.4 1367.2L840.4 1044.1M1054.8 1367.2L1054.8 1044.1M1054.8 1367.2L1054.8 1044.1M1033.3 1367.2L1033.3 1044.1M840.4 1367.2L840.4 1044.1M840.4 1367.2L840.4 1044.1M818.9 1367.2L818.9 1044.1M1028.0 1018.9L1028.0 789.6M1028.0 1018.9L1028.0 789.6M845.7 1018.9L845.7 789.6M1028.0 789.6L845.7 789.6M936.8 655.6L912.0 655.6M912.0 655.6L889.6 655.6M889.6 655.6L871.8 655.6M865.5 655.6L862.9 655.6M1017.2 655.6L1013.3 655.6M1013.3 655.6L1001.9 655.6M1001.9 655.6L984.1 655.6M984.1 655.6L961.7 655.6M936.8 655.6L961.7 655.6M287.0 1346.0L287.0 403.7M287.0 1346.0L287.0 403.7M268.2 1346.0L268.2 403.7M287.0 1368.5L268.2 1368.5M287.0 403.7L268.2 403.7M371.4 1368.5L371.4 1347.1M371.4 1367.2L371.4 1347.1M183.8 1368.5L183.8 1347.1M371.4 1368.5L183.8 1368.5M371.4 1347.1L183.8 1347.1" fill="none" stroke="#2c3841" stroke-width="1.05" stroke-linecap="round" stroke-linejoin="round"/><text x="42" y="1445" font-family="Arial,sans-serif" font-size="14" letter-spacing="1.3" fill="#65727b">RIGHT ELEVATION   /   SOURCE PLAN RECONSTRUCTION / NTS</text></svg>